<svg width="115" height="40" viewBox="0 0 115 40" fill="none" xmlns="http://www.w3.org/2000/svg">
<g clip-path="url(#clip0_305_83)">
<g filter="url(#filter0_d_305_83)">
<rect width="102" height="35" fill="white"/>
<rect x="0.5" y="0.5" width="101" height="34" stroke="black"/>
</g>
<path d="M7.51705 26V8.54545H14.4034C15.7216 8.54545 16.8466 8.78125 17.7784 9.25284C18.7159 9.71875 19.429 10.3807 19.9176 11.2386C20.4119 12.0909 20.6591 13.0937 20.6591 14.2472C20.6591 15.4062 20.4091 16.4034 19.9091 17.2386C19.4091 18.0682 18.6847 18.7045 17.7358 19.1477C16.7926 19.5909 15.6506 19.8125 14.3097 19.8125H9.69886V16.8466H13.7131C14.4176 16.8466 15.0028 16.75 15.4688 16.5568C15.9347 16.3636 16.2813 16.0739 16.5085 15.6875C16.7415 15.3011 16.858 14.821 16.858 14.2472C16.858 13.6676 16.7415 13.179 16.5085 12.7812C16.2813 12.3835 15.9318 12.0824 15.4602 11.8778C14.9943 11.6676 14.4063 11.5625 13.696 11.5625H11.2074V26H7.51705ZM16.9432 18.0568L21.2812 26H17.2074L12.9631 18.0568H16.9432ZM32.7358 13.5653C32.6676 12.8778 32.375 12.3437 31.858 11.9631C31.3409 11.5824 30.6392 11.392 29.7528 11.392C29.1506 11.392 28.642 11.4773 28.2273 11.6477C27.8125 11.8125 27.4943 12.0426 27.2727 12.3381C27.0568 12.6335 26.9489 12.9688 26.9489 13.3438C26.9375 13.6562 27.0028 13.929 27.1449 14.1619C27.2926 14.3949 27.4943 14.5966 27.75 14.767C28.0057 14.9318 28.3011 15.0767 28.6364 15.2017C28.9716 15.321 29.3295 15.4233 29.7102 15.5085L31.2784 15.8835C32.0398 16.054 32.7386 16.2812 33.375 16.5653C34.0114 16.8494 34.5625 17.1989 35.0284 17.6136C35.4943 18.0284 35.8551 18.517 36.1108 19.0795C36.3722 19.642 36.5057 20.2869 36.5114 21.0142C36.5057 22.0824 36.233 23.0085 35.6932 23.7926C35.1591 24.571 34.3864 25.1761 33.375 25.608C32.3693 26.0341 31.1563 26.2472 29.7358 26.2472C28.3267 26.2472 27.0994 26.0312 26.054 25.5994C25.0142 25.1676 24.2017 24.5284 23.6165 23.6818C23.0369 22.8295 22.733 21.7756 22.7045 20.5199H26.2756C26.3153 21.1051 26.483 21.5937 26.7784 21.9858C27.0795 22.3722 27.4801 22.6648 27.9801 22.8636C28.4858 23.0568 29.0568 23.1534 29.6932 23.1534C30.3182 23.1534 30.8608 23.0625 31.321 22.8807C31.7869 22.6989 32.1477 22.446 32.4034 22.1222C32.6591 21.7983 32.7869 21.4261 32.7869 21.0057C32.7869 20.6136 32.6705 20.2841 32.4375 20.017C32.2102 19.75 31.875 19.5227 31.4318 19.3352C30.9943 19.1477 30.4574 18.9773 29.821 18.8239L27.9205 18.3466C26.4489 17.9886 25.2869 17.429 24.4347 16.6676C23.5824 15.9062 23.1591 14.8807 23.1648 13.5909C23.1591 12.5341 23.4403 11.6108 24.0085 10.821C24.5824 10.0312 25.3693 9.41477 26.3693 8.97159C27.3693 8.52841 28.5057 8.30682 29.7784 8.30682C31.0739 8.30682 32.2045 8.52841 33.1705 8.97159C34.142 9.41477 34.8977 10.0312 35.4375 10.821C35.9773 11.6108 36.2557 12.5256 36.2727 13.5653H32.7358ZM38.9936 26V8.54545H50.5504V11.5881H42.6839V15.7472H49.7834V18.7898H42.6839V26H38.9936ZM52.3679 11.5881V8.54545H66.7031V11.5881H61.3594V26H57.7116V11.5881H52.3679Z" fill="black"/>
<path d="M77 12.6458V9H90V19.9375M77 15.5625V26.5H90C90 26.5 90 24.7224 90 23.5833" stroke="black" stroke-width="1.5"/>
<path d="M84.9166 13.375C84.9166 14.1757 84.2756 14.8125 83.4999 14.8125C82.7243 14.8125 82.0833 14.1757 82.0833 13.375C82.0833 12.5743 82.7243 11.9375 83.4999 11.9375C84.2756 11.9375 84.9166 12.5743 84.9166 13.375Z" stroke="black" stroke-width="1.5"/>
<path d="M80.611 17.75C80.6758 17.6191 80.7428 17.484 80.8113 17.3455C81.9131 15.1207 85.0865 15.1203 86.1883 17.3451L86.3888 17.75M79.8888 20.6667H87.111M79.8888 23.5833H84.9443" stroke="black" stroke-width="1.5" stroke-linecap="round"/>
</g>
<defs>
<filter id="filter0_d_305_83" x="0" y="0" width="107" height="40" filterUnits="userSpaceOnUse" color-interpolation-filters="sRGB">
<feFlood flood-opacity="0" result="BackgroundImageFix"/>
<feColorMatrix in="SourceAlpha" type="matrix" values="0 0 0 0 0 0 0 0 0 0 0 0 0 0 0 0 0 0 127 0" result="hardAlpha"/>
<feOffset dx="5" dy="5"/>
<feComposite in2="hardAlpha" operator="out"/>
<feColorMatrix type="matrix" values="0 0 0 0 0 0 0 0 0 0 0 0 0 0 0 0 0 0 1 0"/>
<feBlend mode="normal" in2="BackgroundImageFix" result="effect1_dropShadow_305_83"/>
<feBlend mode="normal" in="SourceGraphic" in2="effect1_dropShadow_305_83" result="shape"/>
</filter>
<clipPath id="clip0_305_83">
<rect width="115" height="40" fill="white"/>
</clipPath>
</defs>
</svg>
